<svg width="125" height="385" viewBox="0 0 125 385" fill="none" xmlns="http://www.w3.org/2000/svg">
<g clip-path="url(#clip0)">
<path d="M31.7258 276.451H93.2741C95.9656 276.451 98.1475 274.045 98.1475 271.077V271.071C98.1475 268.103 95.9656 265.697 93.2741 265.697H31.7258C29.0343 265.697 26.8524 268.103 26.8524 271.071V271.077C26.8524 274.045 29.0343 276.451 31.7258 276.451Z" fill="#FF6C58"/>
<path d="M32.3032 174.128H92.6968C96.4746 174.128 99.5371 170.751 99.5371 166.585C99.5371 162.419 96.4746 159.042 92.6968 159.042H32.3032C28.5254 159.042 25.4629 162.419 25.4629 166.585C25.4629 170.751 28.5254 174.128 32.3032 174.128Z" fill="#FF6C58"/>
<path d="M62.566 320.495C65.5223 320.495 67.9189 317.852 67.9189 314.592C67.9189 311.332 65.5223 308.69 62.566 308.69C59.6097 308.69 57.2131 311.332 57.2131 314.592C57.2131 317.852 59.6097 320.495 62.566 320.495Z" fill="#FF6C58"/>
<path d="M62.566 346.588C65.5223 346.588 67.9189 343.946 67.9189 340.686C67.9189 337.426 65.5223 334.783 62.566 334.783C59.6097 334.783 57.2131 337.426 57.2131 340.686C57.2131 343.946 59.6097 346.588 62.566 346.588Z" fill="#FF6C58"/>
<path d="M50.7348 333.542C53.6912 333.542 56.0877 330.899 56.0877 327.639C56.0877 324.379 53.6912 321.736 50.7348 321.736C47.7785 321.736 45.382 324.379 45.382 327.639C45.382 330.899 47.7785 333.542 50.7348 333.542Z" fill="#FF6C58"/>
<path d="M74.3972 333.542C77.3535 333.542 79.75 330.899 79.75 327.639C79.75 324.379 77.3535 321.736 74.3972 321.736C71.4409 321.736 69.0443 324.379 69.0443 327.639C69.0443 330.899 71.4409 333.542 74.3972 333.542Z" fill="#FF6C58"/>
<path d="M62.2529 382.653V382.362C62.0535 382.624 61.8042 382.835 61.5226 382.98C61.2411 383.124 60.9341 383.199 60.6236 383.198C60.0565 383.198 59.5126 382.949 59.1116 382.507C58.7106 382.065 58.4854 381.465 58.4854 380.84V372.094C58.4854 370.92 58.9081 369.795 59.6605 368.965C60.4129 368.135 61.4335 367.669 62.4976 367.669C63.5617 367.669 64.5822 368.135 65.3346 368.965C66.0871 369.795 66.5098 370.92 66.5098 372.094V382.647C66.5098 383.27 66.2855 383.867 65.8864 384.307C65.4872 384.747 64.9458 384.995 64.3813 384.995C63.8168 384.995 63.2755 384.747 62.8763 384.307C62.4772 383.867 62.2529 383.27 62.2529 382.647V382.653ZM58.9746 372.099V380.845C58.9789 381.307 59.1431 381.75 59.4337 382.083C59.7242 382.417 60.1191 382.615 60.5377 382.637C60.9563 382.66 61.367 382.506 61.6858 382.206C62.0046 381.906 62.2075 381.483 62.2529 381.023H62.7422V382.642C62.7422 383.121 62.9149 383.581 63.2223 383.92C63.5297 384.259 63.9466 384.45 64.3813 384.45C64.8161 384.45 65.233 384.259 65.5404 383.92C65.8478 383.581 66.0205 383.121 66.0205 382.642V372.094C66.0205 371.063 65.6493 370.075 64.9886 369.347C64.328 368.618 63.4319 368.209 62.4976 368.209C61.5632 368.209 60.6672 368.618 60.0065 369.347C59.3458 370.075 58.9746 371.063 58.9746 372.094V372.099Z" fill="url(#paint0_linear)"/>
<mask id="path-8-inside-1" fill="white">
<path d="M-0.0054435 220.514C0.459386 242.55 18.5877 259.055 26.5975 265.298C25.5666 266.423 24.8613 267.86 24.5704 269.427C24.2796 270.994 24.4164 272.621 24.9634 274.102C25.5105 275.584 26.4434 276.853 27.6443 277.75C28.8451 278.648 30.2601 279.132 31.7106 279.143H60.0358V306.472C58.4899 307.051 57.1481 308.152 56.2002 309.618C55.2522 311.084 54.7459 312.841 54.753 314.642C54.76 316.442 55.28 318.195 56.2393 319.652C57.1987 321.109 58.549 322.197 60.0995 322.761V324.952H58.1129C57.5314 323.011 56.342 321.362 54.7579 320.3C53.1737 319.238 51.2985 318.834 49.4682 319.158C47.638 319.483 45.9725 320.516 44.7703 322.072C43.5681 323.628 42.9079 325.606 42.9079 327.65C42.9079 329.694 43.5681 331.671 44.7703 333.227C45.9725 334.784 47.638 335.817 49.4682 336.141C51.2985 336.466 53.1737 336.061 54.7579 335C56.342 333.938 57.5314 332.289 58.1129 330.348H60.0995V332.538C58.5424 333.104 57.187 334.197 56.2262 335.662C55.2654 337.127 54.7481 338.889 54.7481 340.696C54.7481 342.504 55.2654 344.266 56.2262 345.731C57.187 347.196 58.5424 348.289 60.0995 348.855L60.0456 367.443C60.0474 367.876 60.1448 368.301 60.3294 368.684C59.8338 369.066 59.4292 369.575 59.1498 370.167C58.8704 370.758 58.7245 371.416 58.7245 372.083V380.829C58.7261 381.363 58.9132 381.875 59.2473 382.261C59.5813 382.647 60.0369 382.876 60.5201 382.903C61.0033 382.929 61.4772 382.75 61.8441 382.402C62.211 382.055 62.443 381.565 62.4921 381.034V382.653C62.4921 383.204 62.6906 383.732 63.0439 384.122C63.3971 384.511 63.8763 384.73 64.3759 384.73C64.8755 384.73 65.3547 384.511 65.7079 384.122C66.0612 383.732 66.2597 383.204 66.2597 382.653V372.094C66.2597 371.427 66.1138 370.769 65.8344 370.177C65.5551 369.586 65.1504 369.077 64.6548 368.694C64.8371 368.317 64.9344 367.897 64.9386 367.47L64.9973 348.844C66.5561 348.279 67.9134 347.186 68.8757 345.721C69.838 344.255 70.3561 342.492 70.3561 340.683C70.3561 338.874 69.838 337.111 68.8757 335.645C67.9134 334.18 66.5561 333.087 64.9973 332.522V330.331H66.9838C67.5653 332.272 68.7547 333.922 70.3389 334.983C71.923 336.045 73.7983 336.45 75.6285 336.125C77.4587 335.8 79.1242 334.767 80.3264 333.211C81.5286 331.655 82.1889 329.678 82.1889 327.634C82.1889 325.589 81.5286 323.612 80.3264 322.056C79.1242 320.5 77.4587 319.467 75.6285 319.142C73.7983 318.817 71.923 319.222 70.3389 320.284C68.7547 321.346 67.5653 322.995 66.9838 324.936H64.9973V322.745C66.5587 322.176 67.9167 321.076 68.8769 319.604C69.8372 318.131 70.3505 316.362 70.3435 314.548C70.3364 312.734 69.8093 310.97 68.8376 309.507C67.866 308.043 66.4995 306.957 64.9337 306.402V279.154H93.2589C94.7094 279.143 96.1244 278.658 97.3253 277.761C98.5261 276.864 99.459 275.595 100.006 274.113C100.553 272.632 100.69 271.005 100.399 269.438C100.108 267.871 99.4029 266.434 98.3721 265.309C106.406 259.055 124.515 242.55 124.975 220.525C125.313 204.538 116.256 189.23 98.0638 174.932C99.6587 173.668 100.85 171.88 101.466 169.824C102.082 167.768 102.093 165.549 101.495 163.486C100.897 161.423 99.7225 159.622 98.1392 158.341C96.5559 157.06 94.6454 156.365 92.6816 156.355H71.0352V152.319C71.0327 150.292 70.4384 148.321 69.3403 146.696C68.2423 145.071 66.6988 143.879 64.9386 143.297V0H60.0456V143.303C58.2854 143.885 56.7419 145.076 55.6439 146.701C54.5458 148.326 53.9515 150.298 53.949 152.324V156.349H32.288C30.3242 156.359 28.4136 157.055 26.8303 158.336C25.247 159.617 24.0723 161.418 23.4747 163.481C22.877 165.544 22.8871 167.762 23.5035 169.819C24.1199 171.875 25.3109 173.663 26.9057 174.926C8.71867 189.203 -0.333271 204.527 -0.0054435 220.514ZM71.4804 327.639C71.4804 327.005 71.6509 326.386 71.9703 325.858C72.2896 325.331 72.7435 324.921 73.2746 324.678C73.8057 324.435 74.3901 324.372 74.9539 324.496C75.5177 324.619 76.0355 324.925 76.442 325.373C76.8485 325.821 77.1253 326.392 77.2374 327.014C77.3496 327.635 77.292 328.28 77.072 328.866C76.852 329.451 76.4795 329.952 76.0016 330.304C75.5236 330.656 74.9617 330.844 74.3868 330.844C73.6169 330.843 72.8789 330.504 72.3349 329.903C71.7909 329.303 71.4853 328.488 71.4853 327.639H71.4804ZM59.6493 340.686C59.6493 340.052 59.8198 339.432 60.1391 338.905C60.4585 338.378 60.9124 337.967 61.4435 337.725C61.9746 337.482 62.5589 337.419 63.1227 337.542C63.6865 337.666 64.2044 337.971 64.6109 338.419C65.0173 338.868 65.2941 339.439 65.4063 340.06C65.5184 340.682 65.4609 341.327 65.2409 341.912C65.0209 342.498 64.6484 342.998 64.1704 343.351C63.6925 343.703 63.1305 343.891 62.5557 343.891C61.7857 343.889 61.0477 343.551 60.5037 342.95C59.9597 342.349 59.6542 341.535 59.6542 340.686H59.6493ZM53.6261 327.639C53.6261 328.273 53.4556 328.893 53.1363 329.42C52.8169 329.947 52.363 330.357 51.8319 330.6C51.3008 330.843 50.7165 330.906 50.1527 330.782C49.5889 330.659 49.071 330.354 48.6646 329.905C48.2581 329.457 47.9813 328.886 47.8691 328.264C47.757 327.643 47.8145 326.998 48.0345 326.413C48.2545 325.827 48.627 325.326 49.105 324.974C49.5829 324.622 50.1449 324.434 50.7197 324.434C51.1018 324.433 51.4802 324.516 51.8334 324.676C52.1866 324.837 52.5076 325.073 52.778 325.371C53.0484 325.669 53.2629 326.022 53.4093 326.411C53.5557 326.8 53.631 327.218 53.631 327.639H53.6261ZM59.6542 314.565C59.6542 313.932 59.8247 313.312 60.144 312.785C60.4634 312.258 60.9173 311.847 61.4484 311.604C61.9794 311.362 62.5638 311.298 63.1276 311.422C63.6914 311.546 64.2093 311.851 64.6158 312.299C65.0222 312.747 65.299 313.318 65.4112 313.94C65.5233 314.562 65.4658 315.206 65.2458 315.792C65.0258 316.378 64.6533 316.878 64.1753 317.23C63.6974 317.582 63.1354 317.77 62.5606 317.77C62.1789 317.77 61.801 317.688 61.4484 317.526C61.0958 317.365 60.7754 317.129 60.5055 316.832C60.2356 316.534 60.0215 316.181 59.8754 315.792C59.7294 315.403 59.6542 314.986 59.6542 314.565ZM4.8875 220.374C4.57924 205.396 14.0471 190.746 33.0268 176.831H45.8121C39.6861 185.07 28.2415 203.496 28.9852 225.144C29.4745 238.967 34.8568 251.674 45.0292 263.005H32.288C28.4079 260.28 5.37679 243.143 4.8875 220.374ZM31.7155 268.395H93.2687C93.8633 268.473 94.4114 268.789 94.809 269.282C95.2066 269.776 95.4262 270.414 95.4262 271.074C95.4262 271.734 95.2066 272.372 94.809 272.865C94.4114 273.359 93.8633 273.675 93.2687 273.753H31.7204C31.1258 273.675 30.5778 273.359 30.1801 272.865C29.7825 272.372 29.5629 271.734 29.5629 271.074C29.5629 270.414 29.7825 269.776 30.1801 269.282C30.5778 268.789 31.1258 268.473 31.7204 268.395H31.7155ZM120.087 220.374C119.598 243.181 96.5763 260.269 92.6865 262.999H79.9648C90.1421 251.669 95.5341 238.962 96.0088 225.138C96.7525 203.491 85.3079 185.076 79.1819 176.82H91.9623C110.942 190.752 120.41 205.401 120.092 220.39L120.087 220.374ZM92.6865 171.414H32.288C31.1201 171.414 30 170.902 29.1741 169.992C28.3483 169.081 27.8843 167.846 27.8843 166.558C27.8843 165.27 28.3483 164.035 29.1741 163.124C30 162.213 31.1201 161.702 32.288 161.702H92.6913C93.8593 161.702 94.9794 162.213 95.8052 163.124C96.631 164.035 97.095 165.27 97.095 166.558C97.095 167.846 96.631 169.081 95.8052 169.992C94.9794 170.902 93.8593 171.414 92.6913 171.414H92.6865ZM33.8782 224.998C33.0513 201.327 48.8163 181.04 52.305 176.853H60.0505V263.005H52.1729C40.5179 251.706 34.3626 238.919 33.8782 224.998ZM72.8211 263.026H64.9435V176.826H72.689C76.1777 181.013 91.9427 201.3 91.1158 224.971C90.6265 238.919 84.4712 251.706 72.8211 263.005V263.026ZM66.1422 156.344H58.8469V152.319C58.8815 151.277 59.2809 150.291 59.9612 149.568C60.6415 148.845 61.5496 148.441 62.4946 148.441C63.4395 148.441 64.3476 148.845 65.0279 149.568C65.7082 150.291 66.1077 151.277 66.1422 152.319V156.344Z"/>
</mask>
<path d="M-0.0054435 220.514C0.459386 242.55 18.5877 259.055 26.5975 265.298C25.5666 266.423 24.8613 267.86 24.5704 269.427C24.2796 270.994 24.4164 272.621 24.9634 274.102C25.5105 275.584 26.4434 276.853 27.6443 277.75C28.8451 278.648 30.2601 279.132 31.7106 279.143H60.0358V306.472C58.4899 307.051 57.1481 308.152 56.2002 309.618C55.2522 311.084 54.7459 312.841 54.753 314.642C54.76 316.442 55.28 318.195 56.2393 319.652C57.1987 321.109 58.549 322.197 60.0995 322.761V324.952H58.1129C57.5314 323.011 56.342 321.362 54.7579 320.3C53.1737 319.238 51.2985 318.834 49.4682 319.158C47.638 319.483 45.9725 320.516 44.7703 322.072C43.5681 323.628 42.9079 325.606 42.9079 327.65C42.9079 329.694 43.5681 331.671 44.7703 333.227C45.9725 334.784 47.638 335.817 49.4682 336.141C51.2985 336.466 53.1737 336.061 54.7579 335C56.342 333.938 57.5314 332.289 58.1129 330.348H60.0995V332.538C58.5424 333.104 57.187 334.197 56.2262 335.662C55.2654 337.127 54.7481 338.889 54.7481 340.696C54.7481 342.504 55.2654 344.266 56.2262 345.731C57.187 347.196 58.5424 348.289 60.0995 348.855L60.0456 367.443C60.0474 367.876 60.1448 368.301 60.3294 368.684C59.8338 369.066 59.4292 369.575 59.1498 370.167C58.8704 370.758 58.7245 371.416 58.7245 372.083V380.829C58.7261 381.363 58.9132 381.875 59.2473 382.261C59.5813 382.647 60.0369 382.876 60.5201 382.903C61.0033 382.929 61.4772 382.75 61.8441 382.402C62.211 382.055 62.443 381.565 62.4921 381.034V382.653C62.4921 383.204 62.6906 383.732 63.0439 384.122C63.3971 384.511 63.8763 384.73 64.3759 384.73C64.8755 384.73 65.3547 384.511 65.7079 384.122C66.0612 383.732 66.2597 383.204 66.2597 382.653V372.094C66.2597 371.427 66.1138 370.769 65.8344 370.177C65.5551 369.586 65.1504 369.077 64.6548 368.694C64.8371 368.317 64.9344 367.897 64.9386 367.47L64.9973 348.844C66.5561 348.279 67.9134 347.186 68.8757 345.721C69.838 344.255 70.3561 342.492 70.3561 340.683C70.3561 338.874 69.838 337.111 68.8757 335.645C67.9134 334.18 66.5561 333.087 64.9973 332.522V330.331H66.9838C67.5653 332.272 68.7547 333.922 70.3389 334.983C71.923 336.045 73.7983 336.45 75.6285 336.125C77.4587 335.8 79.1242 334.767 80.3264 333.211C81.5286 331.655 82.1889 329.678 82.1889 327.634C82.1889 325.589 81.5286 323.612 80.3264 322.056C79.1242 320.5 77.4587 319.467 75.6285 319.142C73.7983 318.817 71.923 319.222 70.3389 320.284C68.7547 321.346 67.5653 322.995 66.9838 324.936H64.9973V322.745C66.5587 322.176 67.9167 321.076 68.8769 319.604C69.8372 318.131 70.3505 316.362 70.3435 314.548C70.3364 312.734 69.8093 310.97 68.8376 309.507C67.866 308.043 66.4995 306.957 64.9337 306.402V279.154H93.2589C94.7094 279.143 96.1244 278.658 97.3253 277.761C98.5261 276.864 99.459 275.595 100.006 274.113C100.553 272.632 100.69 271.005 100.399 269.438C100.108 267.871 99.4029 266.434 98.3721 265.309C106.406 259.055 124.515 242.55 124.975 220.525C125.313 204.538 116.256 189.23 98.0638 174.932C99.6587 173.668 100.85 171.88 101.466 169.824C102.082 167.768 102.093 165.549 101.495 163.486C100.897 161.423 99.7225 159.622 98.1392 158.341C96.5559 157.06 94.6454 156.365 92.6816 156.355H71.0352V152.319C71.0327 150.292 70.4384 148.321 69.3403 146.696C68.2423 145.071 66.6988 143.879 64.9386 143.297V0H60.0456V143.303C58.2854 143.885 56.7419 145.076 55.6439 146.701C54.5458 148.326 53.9515 150.298 53.949 152.324V156.349H32.288C30.3242 156.359 28.4136 157.055 26.8303 158.336C25.247 159.617 24.0723 161.418 23.4747 163.481C22.877 165.544 22.8871 167.762 23.5035 169.819C24.1199 171.875 25.3109 173.663 26.9057 174.926C8.71867 189.203 -0.333271 204.527 -0.0054435 220.514ZM71.4804 327.639C71.4804 327.005 71.6509 326.386 71.9703 325.858C72.2896 325.331 72.7435 324.921 73.2746 324.678C73.8057 324.435 74.3901 324.372 74.9539 324.496C75.5177 324.619 76.0355 324.925 76.442 325.373C76.8485 325.821 77.1253 326.392 77.2374 327.014C77.3496 327.635 77.292 328.28 77.072 328.866C76.852 329.451 76.4795 329.952 76.0016 330.304C75.5236 330.656 74.9617 330.844 74.3868 330.844C73.6169 330.843 72.8789 330.504 72.3349 329.903C71.7909 329.303 71.4853 328.488 71.4853 327.639H71.4804ZM59.6493 340.686C59.6493 340.052 59.8198 339.432 60.1391 338.905C60.4585 338.378 60.9124 337.967 61.4435 337.725C61.9746 337.482 62.5589 337.419 63.1227 337.542C63.6865 337.666 64.2044 337.971 64.6109 338.419C65.0173 338.868 65.2941 339.439 65.4063 340.06C65.5184 340.682 65.4609 341.327 65.2409 341.912C65.0209 342.498 64.6484 342.998 64.1704 343.351C63.6925 343.703 63.1305 343.891 62.5557 343.891C61.7857 343.889 61.0477 343.551 60.5037 342.95C59.9597 342.349 59.6542 341.535 59.6542 340.686H59.6493ZM53.6261 327.639C53.6261 328.273 53.4556 328.893 53.1363 329.42C52.8169 329.947 52.363 330.357 51.8319 330.6C51.3008 330.843 50.7165 330.906 50.1527 330.782C49.5889 330.659 49.071 330.354 48.6646 329.905C48.2581 329.457 47.9813 328.886 47.8691 328.264C47.757 327.643 47.8145 326.998 48.0345 326.413C48.2545 325.827 48.627 325.326 49.105 324.974C49.5829 324.622 50.1449 324.434 50.7197 324.434C51.1018 324.433 51.4802 324.516 51.8334 324.676C52.1866 324.837 52.5076 325.073 52.778 325.371C53.0484 325.669 53.2629 326.022 53.4093 326.411C53.5557 326.8 53.631 327.218 53.631 327.639H53.6261ZM59.6542 314.565C59.6542 313.932 59.8247 313.312 60.144 312.785C60.4634 312.258 60.9173 311.847 61.4484 311.604C61.9794 311.362 62.5638 311.298 63.1276 311.422C63.6914 311.546 64.2093 311.851 64.6158 312.299C65.0222 312.747 65.299 313.318 65.4112 313.94C65.5233 314.562 65.4658 315.206 65.2458 315.792C65.0258 316.378 64.6533 316.878 64.1753 317.23C63.6974 317.582 63.1354 317.77 62.5606 317.77C62.1789 317.77 61.801 317.688 61.4484 317.526C61.0958 317.365 60.7754 317.129 60.5055 316.832C60.2356 316.534 60.0215 316.181 59.8754 315.792C59.7294 315.403 59.6542 314.986 59.6542 314.565ZM4.8875 220.374C4.57924 205.396 14.0471 190.746 33.0268 176.831H45.8121C39.6861 185.07 28.2415 203.496 28.9852 225.144C29.4745 238.967 34.8568 251.674 45.0292 263.005H32.288C28.4079 260.28 5.37679 243.143 4.8875 220.374ZM31.7155 268.395H93.2687C93.8633 268.473 94.4114 268.789 94.809 269.282C95.2066 269.776 95.4262 270.414 95.4262 271.074C95.4262 271.734 95.2066 272.372 94.809 272.865C94.4114 273.359 93.8633 273.675 93.2687 273.753H31.7204C31.1258 273.675 30.5778 273.359 30.1801 272.865C29.7825 272.372 29.5629 271.734 29.5629 271.074C29.5629 270.414 29.7825 269.776 30.1801 269.282C30.5778 268.789 31.1258 268.473 31.7204 268.395H31.7155ZM120.087 220.374C119.598 243.181 96.5763 260.269 92.6865 262.999H79.9648C90.1421 251.669 95.5341 238.962 96.0088 225.138C96.7525 203.491 85.3079 185.076 79.1819 176.82H91.9623C110.942 190.752 120.41 205.401 120.092 220.39L120.087 220.374ZM92.6865 171.414H32.288C31.1201 171.414 30 170.902 29.1741 169.992C28.3483 169.081 27.8843 167.846 27.8843 166.558C27.8843 165.27 28.3483 164.035 29.1741 163.124C30 162.213 31.1201 161.702 32.288 161.702H92.6913C93.8593 161.702 94.9794 162.213 95.8052 163.124C96.631 164.035 97.095 165.27 97.095 166.558C97.095 167.846 96.631 169.081 95.8052 169.992C94.9794 170.902 93.8593 171.414 92.6913 171.414H92.6865ZM33.8782 224.998C33.0513 201.327 48.8163 181.04 52.305 176.853H60.0505V263.005H52.1729C40.5179 251.706 34.3626 238.919 33.8782 224.998ZM72.8211 263.026H64.9435V176.826H72.689C76.1777 181.013 91.9427 201.3 91.1158 224.971C90.6265 238.919 84.4712 251.706 72.8211 263.005V263.026ZM66.1422 156.344H58.8469V152.319C58.8815 151.277 59.2809 150.291 59.9612 149.568C60.6415 148.845 61.5496 148.441 62.4946 148.441C63.4395 148.441 64.3476 148.845 65.0279 149.568C65.7082 150.291 66.1077 151.277 66.1422 152.319V156.344Z" fill="#FFB649" stroke="#EB8C1D" stroke-width="0.6" mask="url(#path-8-inside-1)"/>
<g clip-path="url(#clip1)">
<path d="M42.4079 271.51H82.1235L88.7428 283.684H35.7886L42.4079 271.51Z" fill="#FFD33F"/>
<path d="M62.266 275.568C95.1675 275.568 121.839 251.041 121.839 220.786C121.839 190.53 95.1675 166.003 62.266 166.003C29.3645 166.003 2.6925 190.53 2.6925 220.786C2.6925 251.041 29.3645 275.568 62.266 275.568Z" fill="#EC4B97"/>
<path d="M94.6233 174.799C112.5 200.191 104.608 234.102 76.9964 250.541C57.3005 262.267 31.9534 262.267 12.2574 250.541C30.1099 275.955 66.9864 283.249 94.6233 266.833C122.26 250.416 130.192 216.505 112.34 191.091C107.757 184.567 101.718 179.013 94.6233 174.799Z" fill="#9E1566"/>
<path d="M62.2656 267.453C90.2929 267.453 113.013 246.559 113.013 220.786C113.013 195.013 90.2929 174.119 62.2656 174.119C34.2384 174.119 11.5178 195.013 11.5178 220.786C11.5178 246.559 34.2384 267.453 62.2656 267.453Z" fill="#FFD33F"/>
<path d="M81.6825 177.666C69.2444 172.937 55.2744 172.937 42.8362 177.666L62.266 220.786L81.6825 177.666Z" fill="#F2624C"/>
<path d="M42.8493 177.666C30.4197 182.417 20.5415 191.501 15.3749 202.931L62.2659 220.786L42.8493 177.666Z" fill="#FAA41B"/>
<path d="M15.3752 202.931C10.2328 214.368 10.2328 227.214 15.3752 238.651L62.2662 220.786L15.3752 202.931Z" fill="#FFD33F"/>
<path d="M109.157 202.931L62.2659 220.786L109.157 238.641C114.299 227.203 114.299 214.357 109.157 202.919V202.931Z" fill="#FFD33F"/>
<path d="M109.157 202.931L104.188 204.82C104.151 214.91 101.068 224.792 95.2831 233.366L109.157 238.641C114.299 227.203 114.299 214.357 109.157 202.919V202.931Z" fill="#EAB42D"/>
<path d="M109.157 202.931C103.99 191.501 94.112 182.417 81.6824 177.666L62.2659 220.786L109.157 202.931Z" fill="#FAA41B"/>
<path d="M109.157 202.931C107.509 199.326 105.373 195.926 102.8 192.812C103.72 196.669 104.186 200.605 104.188 204.554V204.82L109.157 202.931Z" fill="#F08015"/>
<path d="M42.8488 263.906C55.2869 268.635 69.2569 268.635 81.6951 263.906L62.2653 220.786L42.8488 263.906Z" fill="#FAA41B"/>
<path d="M44.9029 259.337L42.8488 263.906C55.2869 268.635 69.2569 268.635 81.6951 263.906L75.9584 251.148C66.631 256.469 55.8796 259.304 44.9029 259.337Z" fill="#F08015"/>
<path d="M81.6824 263.906C94.112 259.155 103.99 250.071 109.157 238.641L62.2659 220.786L81.6824 263.906Z" fill="#F2624C"/>
<path d="M95.2827 233.365C90.4164 240.586 83.7979 246.672 75.9456 251.147L81.6823 263.906C94.1119 259.154 103.99 250.071 109.157 238.641L95.2827 233.365Z" fill="#D44A43"/>
<path d="M15.3749 238.641C20.5415 250.071 30.4197 259.155 42.8493 263.906L62.2659 220.786L15.3749 238.641Z" fill="#F2624C"/>
<path d="M44.615 259.336C40.3191 259.335 36.0359 258.907 31.8398 258.06C35.2281 260.426 38.9272 262.391 42.8499 263.906L44.9041 259.336C44.807 259.336 44.7121 259.336 44.615 259.336Z" fill="#D44A43"/>
</g>
</g>
<defs>
<linearGradient id="paint0_linear" x1="66.5098" y1="376.335" x2="58.4854" y2="376.335" gradientUnits="userSpaceOnUse">
<stop stop-color="#E0C24D"/>
<stop offset="0.32" stop-color="#FDF98F"/>
<stop offset="0.68" stop-color="#CEA930"/>
<stop offset="1" stop-color="#FFFF99"/>
</linearGradient>
<clipPath id="clip0">
<rect width="125" height="385" fill="white"/>
</clipPath>
<clipPath id="clip1">
<rect width="130.208" height="119.737" fill="white" transform="translate(-1.73608 163.947)"/>
</clipPath>
</defs>
</svg>
